<svg xmlns="http://www.w3.org/2000/svg" xmlns:xlink="http://www.w3.org/1999/xlink" width="40" zoomAndPan="magnify" viewBox="0 0 30 30.000001" height="40" preserveAspectRatio="xMidYMid meet" version="1.0"><defs><clipPath id="d894c1c934"><path d="M 0.484375 0 L 29.515625 0 L 29.515625 29.03125 L 0.484375 29.03125 Z M 0.484375 0 " clip-rule="nonzero"/></clipPath><clipPath id="da4a106329"><path d="M 8.074219 23.058594 L 21.925781 23.058594 L 15 8.40625 Z M 0.484375 24.796875 L 12.203125 0 L 17.796875 0 L 29.515625 24.796875 L 26.722656 29.03125 L 3.277344 29.03125 Z M 0.484375 24.796875 " clip-rule="evenodd"/></clipPath><linearGradient x1="20" gradientTransform="matrix(0.725806, 0, 0, 0.725806, 0.48387, 0.00000193548)" y1="-0" x2="20" gradientUnits="userSpaceOnUse" y2="39.999998" id="2371c9b9af"><stop stop-opacity="1" stop-color="rgb(49.398804%, 85.099792%, 34.098816%)" offset="0"/><stop stop-opacity="1" stop-color="rgb(49.398804%, 85.099792%, 34.098816%)" offset="0.5"/><stop stop-opacity="1" stop-color="rgb(49.398804%, 85.099792%, 34.098816%)" offset="0.625"/><stop stop-opacity="1" stop-color="rgb(49.398804%, 85.099792%, 34.098816%)" offset="0.65625"/><stop stop-opacity="1" stop-color="rgb(49.398804%, 85.099792%, 34.098816%)" offset="0.671875"/><stop stop-opacity="1" stop-color="rgb(49.19281%, 85.057068%, 34.118652%)" offset="0.675781"/><stop stop-opacity="1" stop-color="rgb(48.988342%, 85.014343%, 34.138489%)" offset="0.679688"/><stop stop-opacity="1" stop-color="rgb(48.390198%, 84.890747%, 34.194946%)" offset="0.683594"/><stop stop-opacity="1" stop-color="rgb(47.793579%, 84.767151%, 34.251404%)" offset="0.6875"/><stop stop-opacity="1" stop-color="rgb(47.195435%, 84.643555%, 34.307861%)" offset="0.691406"/><stop stop-opacity="1" stop-color="rgb(46.598816%, 84.521484%, 34.365845%)" offset="0.695312"/><stop stop-opacity="1" stop-color="rgb(46.000671%, 84.397888%, 34.422302%)" offset="0.699219"/><stop stop-opacity="1" stop-color="rgb(45.404053%, 84.274292%, 34.47876%)" offset="0.703125"/><stop stop-opacity="1" stop-color="rgb(44.805908%, 84.150696%, 34.535217%)" offset="0.707031"/><stop stop-opacity="1" stop-color="rgb(44.20929%, 84.0271%, 34.593201%)" offset="0.710938"/><stop stop-opacity="1" stop-color="rgb(43.611145%, 83.903503%, 34.649658%)" offset="0.714844"/><stop stop-opacity="1" stop-color="rgb(43.014526%, 83.781433%, 34.706116%)" offset="0.71875"/><stop stop-opacity="1" stop-color="rgb(42.416382%, 83.657837%, 34.762573%)" offset="0.722656"/><stop stop-opacity="1" stop-color="rgb(41.819763%, 83.534241%, 34.820557%)" offset="0.726562"/><stop stop-opacity="1" stop-color="rgb(41.221619%, 83.410645%, 34.877014%)" offset="0.730469"/><stop stop-opacity="1" stop-color="rgb(40.625%, 83.287048%, 34.933472%)" offset="0.734375"/><stop stop-opacity="1" stop-color="rgb(40.026855%, 83.163452%, 34.989929%)" offset="0.738281"/><stop stop-opacity="1" stop-color="rgb(39.428711%, 83.041382%, 35.047913%)" offset="0.742188"/><stop stop-opacity="1" stop-color="rgb(38.830566%, 82.917786%, 35.10437%)" offset="0.746094"/><stop stop-opacity="1" stop-color="rgb(38.233948%, 82.794189%, 35.160828%)" offset="0.75"/><stop stop-opacity="1" stop-color="rgb(37.635803%, 82.670593%, 35.217285%)" offset="0.753906"/><stop stop-opacity="1" stop-color="rgb(37.039185%, 82.546997%, 35.275269%)" offset="0.757812"/><stop stop-opacity="1" stop-color="rgb(36.44104%, 82.423401%, 35.331726%)" offset="0.761719"/><stop stop-opacity="1" stop-color="rgb(35.844421%, 82.299805%, 35.388184%)" offset="0.765625"/><stop stop-opacity="1" stop-color="rgb(35.246277%, 82.176208%, 35.444641%)" offset="0.769531"/><stop stop-opacity="1" stop-color="rgb(34.649658%, 82.054138%, 35.502625%)" offset="0.773438"/><stop stop-opacity="1" stop-color="rgb(34.051514%, 81.930542%, 35.559082%)" offset="0.777344"/><stop stop-opacity="1" stop-color="rgb(33.454895%, 81.806946%, 35.61554%)" offset="0.78125"/><stop stop-opacity="1" stop-color="rgb(32.85675%, 81.68335%, 35.671997%)" offset="0.785156"/><stop stop-opacity="1" stop-color="rgb(32.260132%, 81.559753%, 35.72998%)" offset="0.789062"/><stop stop-opacity="1" stop-color="rgb(31.661987%, 81.436157%, 35.786438%)" offset="0.792969"/><stop stop-opacity="1" stop-color="rgb(31.065369%, 81.314087%, 35.842896%)" offset="0.796875"/><stop stop-opacity="1" stop-color="rgb(30.467224%, 81.190491%, 35.899353%)" offset="0.800781"/><stop stop-opacity="1" stop-color="rgb(29.870605%, 81.066895%, 35.957336%)" offset="0.804688"/><stop stop-opacity="1" stop-color="rgb(29.272461%, 80.943298%, 36.013794%)" offset="0.808594"/><stop stop-opacity="1" stop-color="rgb(28.675842%, 80.819702%, 36.070251%)" offset="0.8125"/><stop stop-opacity="1" stop-color="rgb(28.077698%, 80.696106%, 36.126709%)" offset="0.816406"/><stop stop-opacity="1" stop-color="rgb(27.481079%, 80.574036%, 36.184692%)" offset="0.820312"/><stop stop-opacity="1" stop-color="rgb(26.882935%, 80.450439%, 36.24115%)" offset="0.824219"/><stop stop-opacity="1" stop-color="rgb(26.286316%, 80.326843%, 36.297607%)" offset="0.828125"/><stop stop-opacity="1" stop-color="rgb(25.688171%, 80.203247%, 36.354065%)" offset="0.832031"/><stop stop-opacity="1" stop-color="rgb(25.091553%, 80.079651%, 36.412048%)" offset="0.835938"/><stop stop-opacity="1" stop-color="rgb(24.493408%, 79.956055%, 36.468506%)" offset="0.839844"/><stop stop-opacity="1" stop-color="rgb(23.89679%, 79.833984%, 36.524963%)" offset="0.84375"/><stop stop-opacity="1" stop-color="rgb(23.298645%, 79.710388%, 36.581421%)" offset="0.847656"/><stop stop-opacity="1" stop-color="rgb(22.702026%, 79.586792%, 36.639404%)" offset="0.851562"/><stop stop-opacity="1" stop-color="rgb(22.103882%, 79.463196%, 36.695862%)" offset="0.855469"/><stop stop-opacity="1" stop-color="rgb(21.507263%, 79.3396%, 36.752319%)" offset="0.859375"/><stop stop-opacity="1" stop-color="rgb(20.909119%, 79.216003%, 36.808777%)" offset="0.863281"/><stop stop-opacity="1" stop-color="rgb(20.3125%, 79.093933%, 36.86676%)" offset="0.867188"/><stop stop-opacity="1" stop-color="rgb(19.714355%, 78.970337%, 36.923218%)" offset="0.871094"/><stop stop-opacity="1" stop-color="rgb(19.116211%, 78.846741%, 36.979675%)" offset="0.875"/><stop stop-opacity="1" stop-color="rgb(18.518066%, 78.723145%, 37.036133%)" offset="0.878906"/><stop stop-opacity="1" stop-color="rgb(17.921448%, 78.599548%, 37.094116%)" offset="0.882812"/><stop stop-opacity="1" stop-color="rgb(17.323303%, 78.475952%, 37.150574%)" offset="0.886719"/><stop stop-opacity="1" stop-color="rgb(16.726685%, 78.353882%, 37.207031%)" offset="0.890625"/><stop stop-opacity="1" stop-color="rgb(16.12854%, 78.230286%, 37.263489%)" offset="0.894531"/><stop stop-opacity="1" stop-color="rgb(15.531921%, 78.106689%, 37.321472%)" offset="0.898438"/><stop stop-opacity="1" stop-color="rgb(14.933777%, 77.983093%, 37.37793%)" offset="0.902344"/><stop stop-opacity="1" stop-color="rgb(14.337158%, 77.859497%, 37.434387%)" offset="0.90625"/><stop stop-opacity="1" stop-color="rgb(13.739014%, 77.735901%, 37.490845%)" offset="0.910156"/><stop stop-opacity="1" stop-color="rgb(13.142395%, 77.612305%, 37.548828%)" offset="0.914062"/><stop stop-opacity="1" stop-color="rgb(12.54425%, 77.488708%, 37.605286%)" offset="0.917969"/><stop stop-opacity="1" stop-color="rgb(11.947632%, 77.366638%, 37.661743%)" offset="0.921875"/><stop stop-opacity="1" stop-color="rgb(11.349487%, 77.243042%, 37.718201%)" offset="0.925781"/><stop stop-opacity="1" stop-color="rgb(10.752869%, 77.119446%, 37.776184%)" offset="0.929688"/><stop stop-opacity="1" stop-color="rgb(10.154724%, 76.99585%, 37.832642%)" offset="0.933594"/><stop stop-opacity="1" stop-color="rgb(9.558105%, 76.872253%, 37.889099%)" offset="0.9375"/><stop stop-opacity="1" stop-color="rgb(8.959961%, 76.748657%, 37.945557%)" offset="0.941406"/><stop stop-opacity="1" stop-color="rgb(8.363342%, 76.626587%, 38.00354%)" offset="0.945312"/><stop stop-opacity="1" stop-color="rgb(7.765198%, 76.502991%, 38.059998%)" offset="0.949219"/><stop stop-opacity="1" stop-color="rgb(7.168579%, 76.379395%, 38.116455%)" offset="0.953125"/><stop stop-opacity="1" stop-color="rgb(6.570435%, 76.255798%, 38.172913%)" offset="0.957031"/><stop stop-opacity="1" stop-color="rgb(5.973816%, 76.132202%, 38.230896%)" offset="0.960938"/><stop stop-opacity="1" stop-color="rgb(5.375671%, 76.008606%, 38.287354%)" offset="0.964844"/><stop stop-opacity="1" stop-color="rgb(4.779053%, 75.886536%, 38.343811%)" offset="0.96875"/><stop stop-opacity="1" stop-color="rgb(4.180908%, 75.762939%, 38.400269%)" offset="0.972656"/><stop stop-opacity="1" stop-color="rgb(3.58429%, 75.639343%, 38.458252%)" offset="0.976562"/><stop stop-opacity="1" stop-color="rgb(2.986145%, 75.515747%, 38.514709%)" offset="0.980469"/><stop stop-opacity="1" stop-color="rgb(2.389526%, 75.392151%, 38.571167%)" offset="0.984375"/><stop stop-opacity="1" stop-color="rgb(1.791382%, 75.268555%, 38.627625%)" offset="0.988281"/><stop stop-opacity="1" stop-color="rgb(1.194763%, 75.146484%, 38.685608%)" offset="0.992188"/><stop stop-opacity="1" stop-color="rgb(0.596619%, 75.022888%, 38.742065%)" offset="0.996094"/><stop stop-opacity="1" stop-color="rgb(0%, 74.899292%, 38.798523%)" offset="1"/></linearGradient><clipPath id="cfb0ca15df"><path d="M 11.132812 15.539062 L 18.824219 15.539062 L 18.824219 21 L 11.132812 21 Z M 11.132812 15.539062 " clip-rule="nonzero"/></clipPath><clipPath id="8fc36c5c00"><path d="M 11.132812 15.539062 L 18 15.539062 L 18 20 L 11.132812 20 Z M 11.132812 15.539062 " clip-rule="nonzero"/></clipPath><clipPath id="3fd7fcf4e5"><path d="M 11.132812 15.539062 L 18.824219 15.539062 L 18.824219 21 L 11.132812 21 Z M 11.132812 15.539062 " clip-rule="nonzero"/></clipPath><clipPath id="4f4f9011d5"><path d="M 11.132812 16 L 18.824219 16 L 18.824219 21 L 11.132812 21 Z M 11.132812 16 " clip-rule="nonzero"/></clipPath><clipPath id="03c76f870e"><path d="M 12 18 L 18 18 L 18 23.378906 L 12 23.378906 Z M 12 18 " clip-rule="nonzero"/></clipPath></defs><path fill="#c1ff72" d="M 15 1.246094 L 26.71875 26.042969 L 3.277344 26.042969 Z M 15 1.246094 " fill-opacity="1" fill-rule="nonzero"/><g clip-path="url(#d894c1c934)"><g clip-path="url(#da4a106329)"><path fill="url(#2371c9b9af)" d="M 0.484375 0 L 0.484375 29.03125 L 29.515625 29.03125 L 29.515625 0 Z M 0.484375 0 " fill-rule="nonzero"/></g></g><g clip-path="url(#cfb0ca15df)"><path fill="#ef4023" d="M 11.339844 17.636719 L 12.171875 17.816406 L 11.933594 17.828125 C 11.75 18.105469 11.25 18.003906 11.132812 17.597656 C 11.132812 17.597656 11.589844 17.167969 11.96875 17.679688 Z M 11.558594 18.976562 L 12.140625 18.921875 L 11.988281 18.980469 C 11.921875 19.199219 11.570312 19.234375 11.414062 18.992188 C 11.414062 18.992188 11.625 18.613281 11.980469 18.875 Z M 11.996094 20.378906 L 12.441406 20.011719 L 12.347656 20.144531 C 12.417969 20.355469 12.15625 20.578125 11.890625 20.472656 C 11.890625 20.472656 11.855469 20.050781 12.28125 20.0625 Z M 13.101562 19.128906 L 13.488281 19.03125 L 13.390625 19.085938 C 13.371094 19.242188 13.140625 19.304688 13.003906 19.160156 C 13.003906 19.160156 13.105469 18.878906 13.375 19.015625 Z M 13.746094 18.199219 L 14.109375 18.375 L 13.996094 18.355469 C 13.882812 18.460938 13.660156 18.359375 13.652344 18.15625 C 13.652344 18.15625 13.914062 18.011719 14.027344 18.289062 Z M 15.316406 19.074219 L 15.0625 19.320312 L 15.152344 19.273438 C 15.273438 19.328125 15.429688 19.183594 15.382812 19.015625 C 15.382812 19.015625 15.128906 18.964844 15.105469 19.226562 Z M 17.421875 20.386719 L 17.007812 20.042969 L 17.09375 20.167969 C 17.03125 20.363281 17.273438 20.574219 17.519531 20.476562 C 17.519531 20.472656 17.554688 20.078125 17.15625 20.09375 Z M 18.269531 19.671875 L 17.628906 19.496094 L 17.789062 19.589844 C 17.816406 19.847656 18.199219 19.957031 18.425781 19.722656 C 18.425781 19.722656 18.265625 19.257812 17.820312 19.476562 Z M 16.648438 18.597656 L 15.78125 18.542969 L 16.007812 18.621094 C 16.113281 18.941406 16.632812 18.984375 16.859375 18.617188 C 16.859375 18.617188 16.53125 18.066406 16.019531 18.464844 Z M 16.796875 17.226562 L 15.925781 17.660156 L 16.191406 17.605469 C 16.472656 17.859375 17 17.605469 17.015625 17.125 C 17.015625 17.125 16.386719 16.773438 16.113281 17.449219 Z M 18.125 17.636719 L 17.292969 17.816406 L 17.53125 17.828125 C 17.714844 18.105469 18.21875 18.003906 18.335938 17.597656 C 18.335938 17.597656 17.878906 17.167969 17.5 17.679688 Z M 13.128906 15.832031 L 13.609375 16.621094 L 13.421875 16.445312 C 13.066406 16.503906 12.769531 16.035156 13 15.640625 C 13 15.640625 13.683594 15.675781 13.5625 16.359375 Z M 13.128906 15.832031 " fill-opacity="1" fill-rule="evenodd"/></g><g clip-path="url(#8fc36c5c00)"><path fill="#c1c730" d="M 15.992188 19 L 15.550781 19.089844 L 15.675781 19.097656 C 15.773438 19.246094 16.035156 19.195312 16.101562 18.984375 C 16.101562 18.984375 15.863281 18.75 15.660156 19.019531 Z M 13.617188 18.84375 L 14.15625 18.996094 L 14 18.996094 C 13.867188 19.167969 13.539062 19.082031 13.480469 18.808594 C 13.480469 18.808594 13.800781 18.546875 14.027344 18.898438 Z M 11.699219 18.292969 L 12.4375 18.347656 L 12.234375 18.386719 C 12.109375 18.648438 11.664062 18.621094 11.515625 18.285156 C 11.515625 18.285156 11.859375 17.859375 12.246094 18.257812 Z M 17.769531 18.292969 L 17.03125 18.347656 L 17.234375 18.386719 C 17.359375 18.648438 17.804688 18.621094 17.953125 18.285156 C 17.953125 18.285156 17.609375 17.859375 17.222656 18.257812 Z M 16.035156 18.015625 L 15.335938 18.265625 L 15.542969 18.25 C 15.734375 18.46875 16.152344 18.324219 16.207031 17.960938 C 16.207031 17.960938 15.765625 17.640625 15.5 18.125 Z M 12.671875 17.226562 L 13.542969 17.660156 L 13.277344 17.605469 C 12.996094 17.859375 12.46875 17.605469 12.453125 17.125 C 12.453125 17.125 13.078125 16.773438 13.351562 17.449219 Z M 14.210938 16.882812 L 14.398438 17.535156 L 14.300781 17.375 C 14.035156 17.347656 13.921875 16.957031 14.160156 16.722656 C 14.160156 16.722656 14.636719 16.882812 14.414062 17.339844 Z M 16.027344 16.882812 L 15.640625 17.363281 L 15.78125 17.261719 C 16.007812 17.332031 16.242188 17.050781 16.125 16.769531 C 16.125 16.769531 15.675781 16.734375 15.695312 17.195312 Z M 15.003906 16.121094 L 14.945312 16.765625 L 15.007812 16.597656 C 15.246094 16.523438 15.289062 16.140625 15.023438 15.964844 C 15.023438 15.964844 14.609375 16.195312 14.894531 16.585938 Z M 15.003906 16.121094 " fill-opacity="1" fill-rule="evenodd"/></g><g clip-path="url(#3fd7fcf4e5)"><path fill="#fbae3f" d="M 12.515625 20.347656 L 12.683594 20.164062 L 12.652344 20.226562 C 12.695312 20.3125 12.597656 20.425781 12.476562 20.398438 C 12.476562 20.398438 12.433594 20.21875 12.617188 20.195312 Z M 11.503906 19.46875 L 11.914062 19.355469 L 11.8125 19.417969 C 11.792969 19.582031 11.546875 19.65625 11.402344 19.5 C 11.402344 19.5 11.503906 19.203125 11.792969 19.34375 Z M 18.304688 18.996094 L 17.4375 18.921875 L 17.667969 19.003906 C 17.761719 19.328125 18.28125 19.382812 18.519531 19.023438 C 18.519531 19.023438 18.203125 18.464844 17.679688 18.851562 Z M 12.820312 18.597656 L 13.6875 18.542969 L 13.457031 18.621094 C 13.355469 18.941406 12.832031 18.984375 12.605469 18.617188 C 12.605469 18.617188 12.933594 18.066406 13.449219 18.464844 Z M 15.695312 18.632812 L 15.25 18.742188 L 15.378906 18.746094 C 15.480469 18.890625 15.75 18.832031 15.808594 18.609375 C 15.808594 18.609375 15.554688 18.382812 15.359375 18.664062 Z M 17.019531 17.945312 L 16.371094 18.085938 L 16.558594 18.097656 C 16.699219 18.3125 17.089844 18.234375 17.183594 17.917969 C 17.183594 17.917969 16.828125 17.582031 16.53125 17.980469 Z M 13.214844 17.875 L 13.636719 18.027344 L 13.511719 18.015625 C 13.398438 18.148438 13.140625 18.0625 13.109375 17.839844 C 13.109375 17.839844 13.375 17.648438 13.539062 17.941406 Z M 15.210938 17.03125 L 14.960938 17.921875 L 15.09375 17.703125 C 15.449219 17.664062 15.609375 17.132812 15.28125 16.8125 C 15.28125 16.8125 14.636719 17.03125 14.933594 17.65625 Z M 12.089844 17.367188 L 12.507812 17.574219 L 12.378906 17.550781 C 12.246094 17.671875 11.992188 17.550781 11.988281 17.320312 C 11.988281 17.320312 12.285156 17.152344 12.417969 17.472656 Z M 12.609375 16.417969 L 13.109375 16.914062 L 12.9375 16.816406 C 12.6875 16.929688 12.382812 16.636719 12.480469 16.300781 C 12.480469 16.300781 12.988281 16.203125 13.023438 16.730469 Z M 13.886719 16.171875 L 14.050781 16.792969 L 13.957031 16.636719 C 13.710938 16.605469 13.609375 16.238281 13.839844 16.019531 C 13.839844 16.019531 14.285156 16.179688 14.070312 16.605469 Z M 16.339844 15.832031 L 15.859375 16.621094 L 16.046875 16.445312 C 16.398438 16.503906 16.695312 16.035156 16.464844 15.640625 C 16.464844 15.640625 15.785156 15.675781 15.90625 16.359375 Z M 14.597656 15.695312 L 14.621094 16.328125 L 14.570312 16.160156 C 14.339844 16.078125 14.316406 15.699219 14.585938 15.539062 C 14.585938 15.539062 14.980469 15.789062 14.683594 16.15625 Z M 14.597656 15.695312 " fill-opacity="1" fill-rule="evenodd"/></g><g clip-path="url(#4f4f9011d5)"><path fill="#13b09c" d="M 16.898438 20.347656 L 16.730469 20.164062 L 16.761719 20.226562 C 16.71875 20.3125 16.816406 20.425781 16.9375 20.398438 C 16.9375 20.398438 16.980469 20.21875 16.792969 20.195312 Z M 17.6875 19.945312 L 17.253906 19.738281 L 17.355469 19.824219 C 17.34375 20.011719 17.601562 20.140625 17.792969 20 C 17.792969 20 17.738281 19.648438 17.390625 19.75 Z M 11.757812 19.90625 L 12.328125 19.636719 L 12.195312 19.753906 C 12.210938 20 11.871094 20.164062 11.617188 19.980469 C 11.621094 19.980469 11.691406 19.519531 12.144531 19.652344 Z M 13.882812 19.320312 L 14.265625 19.53125 L 14.148438 19.5 C 14.019531 19.609375 13.785156 19.488281 13.789062 19.269531 C 13.789062 19.269531 14.074219 19.125 14.1875 19.433594 Z M 17.289062 18.863281 L 16.765625 18.816406 L 16.902344 18.867188 C 16.960938 19.0625 17.273438 19.09375 17.417969 18.878906 C 17.417969 18.878906 17.226562 18.542969 16.910156 18.773438 Z M 12.269531 18.792969 L 12.632812 18.761719 L 12.535156 18.796875 C 12.496094 18.933594 12.277344 18.957031 12.175781 18.804688 C 12.175781 18.804688 12.3125 18.570312 12.53125 18.730469 Z M 15.207031 18.46875 L 15.011719 18.683594 L 15.078125 18.640625 C 15.1875 18.679688 15.304688 18.550781 15.253906 18.417969 C 15.253906 18.417969 15.042969 18.390625 15.042969 18.605469 Z M 18.664062 18.429688 L 18.015625 18.441406 L 18.191406 18.488281 C 18.289062 18.71875 18.679688 18.71875 18.824219 18.429688 C 18.824219 18.429688 18.546875 18.039062 18.1875 18.371094 Z M 12.445312 17.945312 L 13.09375 18.085938 L 12.910156 18.097656 C 12.765625 18.3125 12.375 18.234375 12.285156 17.917969 C 12.285156 17.917969 12.640625 17.582031 12.933594 17.980469 Z M 13.957031 17.578125 L 14.351562 18.046875 L 14.210938 17.949219 C 13.984375 18.027344 13.742188 17.75 13.851562 17.464844 C 13.851562 17.464844 14.304688 17.417969 14.292969 17.878906 Z M 14.667969 17.597656 L 14.65625 17.960938 L 14.632812 17.863281 C 14.503906 17.808594 14.507812 17.585938 14.667969 17.507812 C 14.667969 17.507812 14.886719 17.667969 14.699219 17.867188 Z M 15.617188 17.570312 L 15.261719 17.921875 L 15.386719 17.851562 C 15.5625 17.929688 15.78125 17.722656 15.707031 17.484375 C 15.707031 17.484375 15.347656 17.414062 15.320312 17.789062 Z M 17.375 17.367188 L 16.960938 17.574219 L 17.085938 17.550781 C 17.222656 17.671875 17.472656 17.550781 17.480469 17.320312 C 17.480469 17.320312 17.179688 17.152344 17.050781 17.472656 Z M 13.441406 16.882812 L 13.824219 17.363281 L 13.6875 17.261719 C 13.460938 17.332031 13.222656 17.050781 13.34375 16.769531 C 13.34375 16.769531 13.792969 16.734375 13.769531 17.195312 Z M 14.667969 16.699219 L 14.652344 17.125 L 14.625 17.007812 C 14.472656 16.941406 14.476562 16.6875 14.667969 16.59375 C 14.667969 16.59375 14.917969 16.777344 14.699219 17.011719 Z M 12.0625 16.804688 L 12.414062 17.078125 L 12.300781 17.03125 C 12.152344 17.117188 11.9375 16.957031 11.976562 16.742188 C 11.976562 16.742188 12.285156 16.640625 12.347656 16.96875 Z M 17.402344 16.804688 L 17.054688 17.078125 L 17.167969 17.03125 C 17.316406 17.117188 17.527344 16.957031 17.492188 16.742188 C 17.492188 16.742188 17.179688 16.640625 17.121094 16.96875 Z M 16.859375 16.417969 L 16.359375 16.914062 L 16.53125 16.816406 C 16.78125 16.929688 17.085938 16.636719 16.984375 16.300781 C 16.984375 16.300781 16.476562 16.203125 16.441406 16.730469 Z M 15.59375 16.164062 L 15.441406 16.742188 L 15.523438 16.597656 C 15.753906 16.570312 15.851562 16.222656 15.636719 16.019531 C 15.636719 16.019531 15.21875 16.167969 15.421875 16.570312 Z M 14.378906 16.34375 L 14.453125 16.707031 L 14.40625 16.613281 C 14.265625 16.589844 14.21875 16.371094 14.359375 16.253906 C 14.359375 16.253906 14.609375 16.359375 14.472656 16.601562 Z M 14.378906 16.34375 " fill-opacity="1" fill-rule="evenodd"/></g><g clip-path="url(#03c76f870e)"><path fill="#794d2a" d="M 14.355469 22.34375 C 14.332031 21.480469 14.484375 20.191406 15.316406 19.722656 C 15.71875 19.5 15.859375 19.300781 15.859375 19.300781 C 15.859375 19.300781 15.96875 19.402344 15.859375 19.566406 C 15.75 19.726562 15.683594 19.820312 15.683594 19.820312 C 15.683594 19.820312 16.121094 19.738281 16.289062 19.464844 C 16.453125 19.195312 16.59375 19.175781 16.691406 19.214844 L 16.3125 19.644531 C 16.3125 19.644531 16.378906 19.648438 16.40625 19.632812 C 16.433594 19.617188 16.78125 19.25 16.863281 19.207031 C 16.941406 19.167969 17.03125 19.199219 17.03125 19.199219 L 16.492188 19.742188 C 16.492188 19.742188 16.566406 19.742188 16.648438 19.6875 C 16.726562 19.632812 17.0625 19.261719 17.140625 19.21875 C 17.222656 19.171875 17.324219 19.21875 17.324219 19.21875 L 16.691406 19.800781 C 16.691406 19.800781 16.773438 19.8125 16.820312 19.777344 C 16.867188 19.738281 17.230469 19.394531 17.316406 19.355469 C 17.402344 19.3125 17.472656 19.363281 17.472656 19.363281 C 17.472656 19.363281 16.996094 19.882812 16.792969 19.976562 C 16.589844 20.070312 15.679688 20.160156 15.277344 20.320312 C 14.902344 20.464844 14.78125 21.179688 14.925781 21.929688 C 14.980469 22.109375 15.085938 22.253906 15.246094 22.375 C 15.609375 22.253906 16.042969 22.425781 16.472656 22.59375 C 16.792969 22.71875 17.109375 22.84375 17.386719 22.84375 L 17.4375 22.84375 L 17.4375 23.066406 L 17.386719 23.066406 C 17.148438 23.066406 16.859375 23.011719 16.554688 22.953125 C 15.917969 22.828125 15.226562 22.691406 14.902344 23.082031 L 14.886719 23.097656 C 15.269531 22.746094 15.945312 22.878906 16.574219 23 C 16.710938 23.027344 16.871094 23.070312 17.007812 23.097656 L 17.496094 23.097656 L 17.496094 23.203125 L 15.226562 23.203125 C 15.171875 23.304688 15.027344 23.378906 14.863281 23.378906 C 14.695312 23.378906 14.554688 23.304688 14.5 23.203125 L 12.230469 23.203125 L 12.230469 23.097656 L 12.617188 23.097656 C 12.769531 23.074219 12.984375 23.03125 13.148438 23 C 13.777344 22.878906 14.457031 22.746094 14.835938 23.097656 L 14.824219 23.082031 C 14.5 22.691406 13.808594 22.828125 13.167969 22.953125 C 12.867188 23.011719 12.578125 23.066406 12.335938 23.066406 L 12.285156 23.066406 L 12.285156 22.84375 L 12.335938 22.84375 C 12.617188 22.84375 12.933594 22.71875 13.25 22.59375 C 13.636719 22.441406 14.019531 22.292969 14.355469 22.34375 Z M 16.535156 23.097656 C 15.902344 22.972656 15.222656 22.84375 14.902344 23.230469 C 15.230469 22.9375 15.777344 22.996094 16.320312 23.097656 Z M 13.1875 23.097656 L 13.40625 23.097656 C 13.949219 22.996094 14.492188 22.9375 14.824219 23.230469 C 14.503906 22.84375 13.820312 22.972656 13.1875 23.097656 L 13.167969 23.101562 Z M 16.4375 22.6875 C 15.859375 22.460938 15.277344 22.234375 14.902344 22.765625 L 14.863281 22.824219 L 14.820312 22.765625 C 14.445312 22.234375 13.867188 22.460938 13.289062 22.6875 C 12.980469 22.808594 12.671875 22.929688 12.386719 22.945312 L 12.386719 22.964844 C 12.609375 22.957031 12.875 22.90625 13.148438 22.851562 C 13.792969 22.726562 14.488281 22.589844 14.863281 22.972656 C 15.238281 22.589844 15.933594 22.726562 16.574219 22.851562 C 16.851562 22.90625 17.117188 22.957031 17.335938 22.964844 L 17.335938 22.945312 C 17.054688 22.929688 16.746094 22.808594 16.4375 22.6875 Z M 13.332031 19.308594 C 13.332031 19.308594 13.210938 19.367188 13.316406 19.550781 C 13.421875 19.730469 13.566406 19.976562 13.476562 20.023438 C 13.386719 20.066406 12.96875 19.867188 12.96875 19.867188 C 13.097656 19.898438 13.226562 19.933594 13.355469 19.929688 C 13.234375 19.8125 13.15625 19.496094 13.109375 19.429688 C 13.058594 19.367188 12.992188 19.363281 12.992188 19.363281 L 13.15625 19.785156 L 13.09375 19.769531 C 13.09375 19.769531 12.949219 19.359375 12.910156 19.296875 C 12.871094 19.230469 12.757812 19.207031 12.757812 19.207031 L 12.960938 19.769531 C 12.960938 19.769531 12.898438 19.738281 12.871094 19.695312 C 12.84375 19.648438 12.707031 19.230469 12.667969 19.167969 C 12.628906 19.109375 12.515625 19.074219 12.515625 19.074219 L 12.722656 19.65625 C 12.722656 19.65625 12.660156 19.632812 12.640625 19.59375 C 12.625 19.550781 12.464844 19.074219 12.433594 19.035156 C 12.40625 18.996094 12.253906 18.964844 12.253906 18.964844 C 12.253906 18.964844 12.496094 19.761719 12.597656 19.945312 C 12.703125 20.128906 12.957031 20.226562 13.65625 20.308594 C 14.359375 20.386719 14.289062 20.960938 14.289062 20.960938 C 14.480469 20.515625 14.578125 20.152344 14.042969 19.910156 C 13.648438 19.730469 13.421875 19.460938 13.332031 19.308594 Z M 14.519531 18.578125 C 14.511719 18.582031 14.488281 18.59375 14.472656 18.59375 C 14.457031 18.59375 14.441406 18.621094 14.425781 18.640625 C 14.414062 18.65625 14.378906 18.667969 14.359375 18.683594 C 14.34375 18.699219 14.28125 18.765625 14.253906 18.769531 C 14.222656 18.773438 14.191406 18.757812 14.183594 18.777344 C 14.171875 18.796875 14.167969 18.835938 14.171875 18.847656 C 14.179688 18.859375 14.222656 18.871094 14.234375 18.863281 C 14.246094 18.855469 14.261719 18.816406 14.273438 18.8125 C 14.285156 18.804688 14.394531 18.769531 14.410156 18.75 C 14.425781 18.726562 14.464844 18.695312 14.464844 18.695312 C 14.464844 18.695312 14.472656 18.722656 14.476562 18.726562 C 14.480469 18.726562 14.503906 18.707031 14.515625 18.726562 C 14.527344 18.742188 14.496094 18.84375 14.476562 18.9375 C 14.453125 19.027344 14.367188 19.121094 14.378906 19.148438 C 14.386719 19.171875 14.472656 19.195312 14.535156 19.183594 C 14.542969 19.234375 14.558594 19.300781 14.5625 19.316406 C 14.5625 19.316406 14.539062 19.449219 14.539062 19.480469 L 14.542969 19.566406 L 14.597656 19.648438 C 14.597656 19.648438 14.671875 19.667969 14.667969 19.625 C 14.664062 19.582031 14.636719 19.507812 14.632812 19.492188 C 14.632812 19.476562 14.644531 19.34375 14.644531 19.328125 C 14.644531 19.316406 14.664062 19.195312 14.671875 19.136719 C 14.703125 19.132812 14.730469 19.128906 14.753906 19.128906 L 14.78125 19.214844 L 14.722656 19.367188 C 14.722656 19.367188 14.679688 19.386719 14.675781 19.417969 C 14.675781 19.445312 14.726562 19.566406 14.742188 19.582031 C 14.753906 19.597656 14.777344 19.574219 14.785156 19.558594 C 14.792969 19.542969 14.773438 19.476562 14.769531 19.457031 C 14.769531 19.441406 14.785156 19.410156 14.796875 19.378906 C 14.804688 19.351562 14.851562 19.292969 14.863281 19.246094 C 14.867188 19.214844 14.871094 19.140625 14.875 19.089844 C 14.890625 19.082031 14.898438 19.074219 14.898438 19.074219 C 14.898438 19.074219 14.867188 18.742188 14.8125 18.636719 C 14.8125 18.636719 14.835938 18.578125 14.859375 18.589844 C 14.878906 18.601562 14.871094 18.542969 14.871094 18.542969 C 14.871094 18.542969 14.9375 18.503906 14.964844 18.457031 C 14.988281 18.414062 15.074219 18.328125 15.09375 18.316406 C 15.117188 18.300781 15.144531 18.238281 15.144531 18.207031 C 15.148438 18.179688 15.136719 18.1875 15.136719 18.179688 C 15.132812 18.171875 15.128906 18.15625 15.125 18.15625 C 15.117188 18.160156 15.109375 18.160156 15.109375 18.167969 C 15.105469 18.175781 15.097656 18.164062 15.089844 18.171875 C 15.085938 18.179688 15.082031 18.191406 15.078125 18.207031 C 15.074219 18.21875 15.050781 18.242188 15.050781 18.242188 C 15.050781 18.242188 15.035156 18.207031 15.027344 18.214844 C 15.019531 18.222656 15.019531 18.25 15.019531 18.273438 C 15.019531 18.296875 14.957031 18.355469 14.929688 18.378906 C 14.898438 18.402344 14.839844 18.449219 14.839844 18.449219 C 14.839844 18.449219 14.777344 18.441406 14.769531 18.453125 C 14.761719 18.460938 14.710938 18.476562 14.699219 18.476562 C 14.691406 18.480469 14.667969 18.476562 14.667969 18.476562 C 14.667969 18.476562 14.695312 18.398438 14.6875 18.378906 C 14.675781 18.355469 14.671875 18.328125 14.667969 18.273438 C 14.664062 18.261719 14.660156 18.253906 14.652344 18.246094 C 14.707031 18.203125 14.796875 18.140625 14.796875 18.121094 C 14.800781 18.085938 14.761719 18.042969 14.761719 18.0625 C 14.757812 18.078125 14.734375 18.128906 14.707031 18.148438 C 14.683594 18.167969 14.652344 18.199219 14.640625 18.191406 C 14.625 18.1875 14.546875 18.101562 14.433594 18.164062 C 14.320312 18.226562 14.320312 18.316406 14.351562 18.363281 C 14.382812 18.410156 14.339844 18.457031 14.328125 18.480469 C 14.3125 18.507812 14.222656 18.585938 14.242188 18.59375 C 14.257812 18.605469 14.378906 18.515625 14.425781 18.476562 C 14.4375 18.496094 14.449219 18.503906 14.457031 18.507812 C 14.476562 18.515625 14.519531 18.542969 14.519531 18.542969 Z M 14.519531 18.578125 " fill-opacity="1" fill-rule="evenodd"/></g></svg>