<svg xmlns="http://www.w3.org/2000/svg" xmlns:xlink="http://www.w3.org/1999/xlink" width="40" zoomAndPan="magnify" viewBox="0 0 30 30.000001" height="40" preserveAspectRatio="xMidYMid meet" version="1.0"><defs><clipPath id="cb7f67c80a"><path d="M 1.597656 7 L 13 7 L 13 23.921875 L 1.597656 23.921875 Z M 1.597656 7 " clip-rule="nonzero"/></clipPath><clipPath id="40f75e8e68"><path d="M 3 5.050781 L 15 5.050781 L 15 23.921875 L 3 23.921875 Z M 3 5.050781 " clip-rule="nonzero"/></clipPath><clipPath id="d50f234a5d"><path d="M 17 7 L 28.453125 7 L 28.453125 23.921875 L 17 23.921875 Z M 17 7 " clip-rule="nonzero"/></clipPath><clipPath id="24a7e75ecf"><path d="M 15 5.050781 L 27 5.050781 L 27 23.921875 L 15 23.921875 Z M 15 5.050781 " clip-rule="nonzero"/></clipPath><clipPath id="24ae8b0019"><path d="M 6.519531 10.589844 L 12 10.589844 L 12 18.574219 L 6.519531 18.574219 Z M 6.519531 10.589844 " clip-rule="nonzero"/></clipPath><clipPath id="d6d4ca9341"><path d="M 17.917969 10.589844 L 24.449219 10.589844 L 24.449219 18.574219 L 17.917969 18.574219 Z M 17.917969 10.589844 " clip-rule="nonzero"/></clipPath></defs><g clip-path="url(#cb7f67c80a)"><path fill="#100f0d" d="M 1.597656 23.921875 C 3.277344 23.316406 7.335938 22.246094 12.605469 23.46875 C 10.9375 22.539062 8.039062 21.695312 3.289062 22.464844 L 2.613281 22.574219 L 2.613281 7.433594 C 2.339844 7.433594 1.980469 7.441406 1.597656 7.457031 L 1.597656 23.921875 " fill-opacity="1" fill-rule="nonzero"/></g><g clip-path="url(#40f75e8e68)"><path fill="#100f0d" d="M 14.441406 23.296875 L 14.441406 8.699219 C 13.964844 8.074219 11.242188 5.0625 3.777344 6.128906 L 3.777344 21.222656 C 4.894531 21.066406 5.914062 21 6.84375 21 C 10.910156 21 13.242188 22.285156 14.441406 23.296875 " fill-opacity="1" fill-rule="nonzero"/></g><g clip-path="url(#d50f234a5d)"><path fill="#100f0d" d="M 28.449219 23.921875 L 28.449219 7.457031 C 28.070312 7.441406 27.707031 7.433594 27.4375 7.433594 L 27.4375 22.574219 L 26.761719 22.464844 C 22.003906 21.691406 19.101562 22.539062 17.4375 23.46875 C 22.707031 22.246094 26.769531 23.316406 28.449219 23.921875 " fill-opacity="1" fill-rule="nonzero"/></g><g clip-path="url(#24a7e75ecf)"><path fill="#100f0d" d="M 26.273438 21.222656 L 26.273438 6.128906 C 18.804688 5.058594 16.089844 8.066406 15.605469 8.699219 L 15.605469 23.296875 C 17.085938 22.054688 20.265625 20.402344 26.273438 21.222656 " fill-opacity="1" fill-rule="nonzero"/></g><path fill="#ffffff" d="M 8.445312 13.917969 C 8.441406 13.902344 8.4375 13.886719 8.433594 13.882812 C 8.410156 13.820312 8.378906 13.765625 8.34375 13.714844 C 8.238281 13.578125 8.101562 13.484375 7.945312 13.417969 C 7.894531 13.398438 7.847656 13.382812 7.800781 13.363281 C 7.792969 13.359375 7.761719 13.34375 7.753906 13.347656 C 7.75 13.351562 7.785156 13.390625 7.785156 13.394531 C 7.824219 13.445312 7.863281 13.496094 7.898438 13.550781 C 8 13.699219 8.105469 13.851562 8.257812 13.949219 C 8.308594 13.984375 8.382812 14.023438 8.449219 14.007812 C 8.703125 14.210938 9.011719 14.316406 9.296875 14.464844 C 9.265625 14.457031 9.238281 14.449219 9.207031 14.441406 C 8.949219 14.375 8.691406 14.386719 8.4375 14.472656 C 8.382812 14.488281 8.328125 14.507812 8.273438 14.53125 C 8.269531 14.535156 8.226562 14.542969 8.226562 14.554688 C 8.226562 14.566406 8.289062 14.582031 8.296875 14.585938 C 8.375 14.617188 8.457031 14.644531 8.535156 14.675781 C 8.789062 14.773438 9.0625 14.769531 9.320312 14.707031 C 9.386719 14.691406 9.5 14.671875 9.558594 14.621094 C 9.796875 14.789062 9.988281 15 10.144531 15.246094 C 10.117188 15.21875 10.085938 15.191406 10.058594 15.167969 C 9.933594 15.0625 9.765625 14.925781 9.59375 14.898438 C 9.59375 14.886719 9.589844 14.875 9.585938 14.863281 C 9.566406 14.8125 9.507812 14.785156 9.457031 14.804688 C 9.40625 14.824219 9.378906 14.882812 9.398438 14.933594 C 9.417969 14.984375 9.476562 15.011719 9.527344 14.992188 C 9.542969 14.988281 9.558594 14.976562 9.570312 14.960938 C 9.734375 14.980469 9.894531 15.117188 10.015625 15.21875 C 10.03125 15.230469 10.046875 15.246094 10.0625 15.257812 C 9.890625 15.144531 9.691406 15.058594 9.484375 15.035156 C 9.457031 15.03125 9.292969 15.003906 9.273438 15.039062 C 9.269531 15.050781 9.316406 15.078125 9.324219 15.082031 C 9.378906 15.128906 9.429688 15.179688 9.480469 15.230469 C 9.65625 15.40625 9.847656 15.515625 10.097656 15.554688 C 10.171875 15.566406 10.246094 15.542969 10.316406 15.550781 C 10.382812 15.679688 10.445312 15.808594 10.511719 15.9375 C 10.492188 15.929688 10.472656 15.917969 10.457031 15.910156 C 10.347656 15.851562 10.230469 15.8125 10.109375 15.792969 C 10.105469 15.792969 10.101562 15.792969 10.101562 15.792969 C 10.097656 15.789062 10.097656 15.785156 10.097656 15.78125 C 10.078125 15.730469 10.019531 15.703125 9.96875 15.722656 C 9.917969 15.742188 9.890625 15.800781 9.910156 15.851562 C 9.929688 15.902344 9.988281 15.929688 10.039062 15.910156 C 10.066406 15.902344 10.085938 15.878906 10.09375 15.855469 C 10.097656 15.855469 10.097656 15.855469 10.097656 15.855469 C 10.214844 15.875 10.324219 15.914062 10.425781 15.96875 C 10.460938 15.984375 10.5 16.003906 10.535156 16.023438 C 10.539062 16.027344 10.542969 16.035156 10.550781 16.042969 C 10.558594 16.050781 10.566406 16.054688 10.574219 16.058594 C 10.636719 16.183594 10.707031 16.300781 10.78125 16.417969 C 10.832031 16.488281 10.882812 16.558594 10.933594 16.625 C 10.945312 16.636719 10.960938 16.667969 10.976562 16.683594 C 10.988281 16.695312 11.003906 16.703125 11.015625 16.707031 C 11.035156 16.710938 11.050781 16.699219 11.054688 16.679688 C 11.058594 16.664062 11.046875 16.648438 11.03125 16.644531 C 11.027344 16.640625 11.019531 16.632812 11.015625 16.625 C 11.003906 16.609375 10.992188 16.59375 10.988281 16.585938 C 10.9375 16.519531 10.882812 16.449219 10.835938 16.378906 C 10.769531 16.277344 10.707031 16.171875 10.652344 16.066406 C 10.652344 16.042969 10.65625 16.019531 10.660156 16.015625 C 10.675781 15.914062 10.714844 15.808594 10.757812 15.714844 C 10.859375 15.488281 10.886719 15.28125 10.773438 15.054688 C 10.757812 15.019531 10.699219 14.886719 10.65625 14.875 C 10.652344 14.875 10.644531 14.9375 10.644531 14.941406 C 10.628906 15.015625 10.617188 15.085938 10.609375 15.160156 C 10.585938 15.332031 10.570312 15.5 10.558594 15.667969 C 10.550781 15.738281 10.542969 15.800781 10.546875 15.863281 C 10.472656 15.714844 10.398438 15.5625 10.320312 15.414062 C 10.234375 15.253906 10.132812 15.101562 10.019531 14.964844 C 10.03125 14.945312 10.050781 14.921875 10.058594 14.910156 C 10.085938 14.855469 10.109375 14.796875 10.125 14.738281 C 10.191406 14.484375 10.144531 14.210938 10.03125 13.980469 C 9.996094 13.902344 9.953125 13.828125 9.90625 13.757812 C 9.898438 13.75 9.871094 13.703125 9.851562 13.707031 C 9.84375 13.710938 9.859375 13.773438 9.859375 13.78125 C 9.867188 13.859375 9.863281 13.933594 9.859375 14.011719 C 9.855469 14.253906 9.859375 14.507812 9.910156 14.746094 C 9.886719 14.710938 9.863281 14.671875 9.84375 14.632812 C 9.742188 14.457031 9.65625 14.285156 9.625 14.085938 C 9.625 14.085938 9.625 14.085938 9.625 14.082031 C 9.667969 14.0625 9.691406 14.007812 9.671875 13.960938 C 9.652344 13.910156 9.597656 13.882812 9.542969 13.902344 C 9.492188 13.921875 9.464844 13.980469 9.484375 14.03125 C 9.5 14.0625 9.527344 14.085938 9.5625 14.09375 C 9.59375 14.304688 9.683594 14.484375 9.785156 14.664062 C 9.808594 14.707031 9.832031 14.746094 9.855469 14.785156 C 9.742188 14.675781 9.617188 14.578125 9.480469 14.492188 C 9.371094 14.425781 9.257812 14.371094 9.144531 14.320312 C 9.136719 14.3125 9.125 14.296875 9.121094 14.289062 C 9.105469 14.265625 9.09375 14.238281 9.085938 14.210938 C 9.058594 14.132812 9.042969 14.050781 9.027344 13.972656 C 8.976562 13.707031 8.910156 13.492188 8.734375 13.28125 C 8.691406 13.234375 8.648438 13.1875 8.601562 13.148438 C 8.597656 13.144531 8.5625 13.113281 8.550781 13.117188 C 8.546875 13.117188 8.566406 13.191406 8.570312 13.195312 C 8.585938 13.28125 8.59375 13.367188 8.605469 13.453125 C 8.636719 13.648438 8.726562 13.8125 8.824219 13.984375 C 8.851562 14.03125 8.878906 14.074219 8.902344 14.117188 C 8.863281 14.085938 8.828125 14.050781 8.792969 14.015625 C 8.644531 13.867188 8.511719 13.703125 8.417969 13.515625 C 8.445312 13.488281 8.453125 13.449219 8.441406 13.410156 C 8.421875 13.359375 8.363281 13.332031 8.3125 13.351562 C 8.261719 13.371094 8.234375 13.429688 8.253906 13.480469 C 8.269531 13.523438 8.3125 13.550781 8.359375 13.542969 C 8.457031 13.738281 8.59375 13.90625 8.746094 14.0625 C 8.796875 14.113281 8.855469 14.164062 8.910156 14.210938 C 8.746094 14.132812 8.585938 14.042969 8.445312 13.917969 Z M 8.445312 13.917969 " fill-opacity="1" fill-rule="evenodd"/><g clip-path="url(#24ae8b0019)"><path fill="#ffffff" d="M 11.414062 15.503906 L 10.457031 16.460938 C 10.472656 16.554688 10.484375 16.660156 10.484375 16.769531 C 10.484375 17.15625 10.34375 17.464844 10.0625 17.699219 C 9.78125 17.9375 9.449219 18.054688 9.0625 18.054688 C 8.992188 18.054688 8.902344 18.042969 8.789062 18.019531 C 8.667969 17.996094 8.5625 17.972656 8.480469 17.949219 C 7.746094 17.699219 7.171875 17.054688 6.761719 16.015625 L 6.523438 16.015625 L 6.855469 18.441406 L 7.105469 18.441406 C 7.105469 18.183594 7.214844 18.054688 7.433594 18.054688 L 7.785156 18.121094 L 8.171875 18.246094 L 8.742188 18.394531 C 8.855469 18.425781 9.011719 18.441406 9.207031 18.441406 C 9.648438 18.441406 10.039062 18.355469 10.378906 18.191406 C 10.742188 18.023438 11.042969 17.785156 11.277344 17.472656 C 11.515625 17.160156 11.632812 16.800781 11.632812 16.390625 C 11.632812 16.082031 11.558594 15.785156 11.414062 15.503906 Z M 7.265625 13.75 L 8.128906 12.882812 C 8.085938 12.828125 8.042969 12.769531 8.003906 12.707031 C 7.875 12.511719 7.808594 12.300781 7.808594 12.082031 C 7.808594 11.832031 7.917969 11.597656 8.140625 11.375 C 8.328125 11.164062 8.605469 11.058594 8.96875 11.058594 C 9.304688 11.058594 9.625 11.144531 9.9375 11.320312 C 10.238281 11.515625 10.484375 11.757812 10.675781 12.046875 C 10.859375 12.335938 10.992188 12.65625 11.074219 13.015625 L 11.371094 13.015625 L 11.121094 10.589844 L 10.878906 10.589844 C 10.851562 10.820312 10.726562 10.945312 10.503906 10.964844 C 10.277344 10.9375 10.105469 10.894531 9.992188 10.839844 C 9.582031 10.675781 9.21875 10.589844 8.902344 10.589844 C 8.476562 10.589844 8.113281 10.675781 7.808594 10.839844 C 7.484375 11.015625 7.238281 11.253906 7.070312 11.558594 C 6.894531 11.867188 6.808594 12.191406 6.808594 12.523438 C 6.839844 12.925781 6.9375 13.261719 7.105469 13.527344 C 7.144531 13.597656 7.199219 13.671875 7.265625 13.75 Z M 7.265625 13.75 " fill-opacity="1" fill-rule="nonzero"/></g><path fill="#ffffff" d="M 19.675781 13.023438 C 19.664062 13.003906 19.652344 12.984375 19.652344 12.980469 C 19.617188 12.90625 19.597656 12.828125 19.585938 12.746094 C 19.554688 12.527344 19.59375 12.324219 19.675781 12.125 C 19.703125 12.0625 19.730469 12.003906 19.753906 11.941406 C 19.757812 11.933594 19.773438 11.890625 19.78125 11.890625 C 19.789062 11.890625 19.796875 11.953125 19.796875 11.960938 C 19.808594 12.042969 19.820312 12.121094 19.835938 12.203125 C 19.878906 12.425781 19.921875 12.65625 19.875 12.882812 C 19.855469 12.960938 19.824219 13.0625 19.75 13.105469 C 19.707031 13.515625 19.527344 13.886719 19.402344 14.277344 C 19.417969 14.246094 19.4375 14.210938 19.457031 14.175781 C 19.632812 13.882812 19.875 13.664062 20.179688 13.511719 C 20.246094 13.480469 20.3125 13.449219 20.378906 13.417969 C 20.386719 13.414062 20.433594 13.386719 20.441406 13.398438 C 20.453125 13.410156 20.414062 13.476562 20.40625 13.488281 C 20.363281 13.585938 20.316406 13.683594 20.273438 13.78125 C 20.136719 14.097656 19.886719 14.339844 19.59375 14.515625 C 19.523438 14.5625 19.402344 14.648438 19.308594 14.65625 C 19.242188 15.015625 19.261719 15.382812 19.339844 15.738281 C 19.34375 15.691406 19.34375 15.640625 19.347656 15.59375 C 19.363281 15.386719 19.394531 15.113281 19.527344 14.933594 C 19.515625 14.921875 19.507812 14.910156 19.5 14.898438 C 19.472656 14.832031 19.5 14.757812 19.5625 14.730469 C 19.625 14.699219 19.703125 14.726562 19.730469 14.792969 C 19.761719 14.855469 19.730469 14.929688 19.667969 14.960938 C 19.648438 14.96875 19.625 14.972656 19.601562 14.96875 C 19.472656 15.136719 19.449219 15.398438 19.433594 15.597656 C 19.429688 15.625 19.429688 15.652344 19.425781 15.679688 C 19.480469 15.421875 19.578125 15.167969 19.742188 14.960938 C 19.765625 14.933594 19.886719 14.757812 19.9375 14.773438 C 19.949219 14.777344 19.933594 14.847656 19.933594 14.855469 C 19.921875 14.949219 19.921875 15.039062 19.921875 15.132812 C 19.925781 15.449219 19.847656 15.71875 19.660156 15.976562 C 19.605469 16.050781 19.515625 16.101562 19.460938 16.171875 C 19.515625 16.347656 19.578125 16.519531 19.632812 16.691406 C 19.640625 16.667969 19.648438 16.640625 19.65625 16.617188 C 19.703125 16.46875 19.769531 16.328125 19.863281 16.199219 C 19.867188 16.195312 19.867188 16.195312 19.871094 16.191406 C 19.867188 16.1875 19.867188 16.183594 19.863281 16.179688 C 19.835938 16.117188 19.863281 16.042969 19.925781 16.011719 C 19.992188 15.984375 20.066406 16.011719 20.09375 16.074219 C 20.125 16.136719 20.097656 16.214844 20.03125 16.242188 C 20 16.257812 19.964844 16.257812 19.933594 16.246094 C 19.933594 16.246094 19.929688 16.246094 19.929688 16.25 C 19.84375 16.367188 19.78125 16.5 19.734375 16.640625 C 19.71875 16.691406 19.707031 16.742188 19.691406 16.789062 C 19.6875 16.796875 19.691406 16.808594 19.691406 16.820312 C 19.691406 16.835938 19.691406 16.847656 19.6875 16.855469 L 19.6875 16.859375 C 19.738281 17.023438 19.785156 17.191406 19.820312 17.367188 C 19.839844 17.472656 19.855469 17.582031 19.871094 17.691406 C 19.871094 17.710938 19.882812 17.75 19.882812 17.78125 C 19.882812 17.804688 19.878906 17.824219 19.871094 17.835938 C 19.855469 17.855469 19.832031 17.859375 19.8125 17.847656 C 19.792969 17.835938 19.789062 17.808594 19.800781 17.792969 C 19.800781 17.789062 19.800781 17.773438 19.796875 17.761719 C 19.796875 17.738281 19.789062 17.714844 19.789062 17.703125 C 19.773438 17.59375 19.757812 17.488281 19.738281 17.382812 C 19.707031 17.230469 19.667969 17.082031 19.621094 16.933594 C 19.597656 16.914062 19.574219 16.894531 19.570312 16.894531 C 19.460938 16.816406 19.332031 16.761719 19.207031 16.714844 C 18.914062 16.601562 18.707031 16.4375 18.605469 16.136719 C 18.589844 16.089844 18.519531 15.917969 18.550781 15.867188 C 18.554688 15.863281 18.613281 15.914062 18.617188 15.914062 C 18.695312 15.96875 18.773438 16.023438 18.847656 16.082031 C 19.019531 16.214844 19.1875 16.351562 19.351562 16.492188 C 19.417969 16.546875 19.480469 16.597656 19.535156 16.660156 C 19.46875 16.457031 19.398438 16.253906 19.335938 16.050781 C 19.265625 15.828125 19.21875 15.601562 19.199219 15.375 C 19.175781 15.371094 19.132812 15.367188 19.117188 15.363281 C 19.042969 15.339844 18.96875 15.304688 18.902344 15.265625 C 18.613281 15.101562 18.410156 14.8125 18.304688 14.503906 C 18.269531 14.402344 18.238281 14.296875 18.222656 14.191406 C 18.21875 14.175781 18.199219 14.105469 18.222656 14.097656 C 18.230469 14.089844 18.273438 14.160156 18.28125 14.167969 C 18.34375 14.246094 18.417969 14.308594 18.488281 14.378906 C 18.710938 14.59375 18.933594 14.820312 19.105469 15.082031 C 19.089844 15.027344 19.078125 14.972656 19.0625 14.917969 C 18.992188 14.675781 18.917969 14.441406 18.765625 14.234375 C 18.765625 14.234375 18.761719 14.230469 18.761719 14.230469 C 18.703125 14.25 18.636719 14.222656 18.609375 14.164062 C 18.582031 14.097656 18.609375 14.023438 18.671875 13.996094 C 18.738281 13.964844 18.8125 13.992188 18.839844 14.058594 C 18.859375 14.097656 18.855469 14.144531 18.832031 14.183594 C 18.988281 14.398438 19.070312 14.640625 19.140625 14.898438 C 19.15625 14.953125 19.171875 15.011719 19.1875 15.070312 C 19.1875 14.867188 19.210938 14.667969 19.261719 14.46875 C 19.300781 14.3125 19.351562 14.160156 19.40625 14.007812 C 19.40625 14 19.40625 13.972656 19.402344 13.960938 C 19.390625 13.925781 19.378906 13.894531 19.363281 13.859375 C 19.316406 13.765625 19.257812 13.679688 19.199219 13.59375 C 19.007812 13.3125 18.871094 13.058594 18.84375 12.710938 C 18.839844 12.632812 18.835938 12.550781 18.84375 12.472656 C 18.84375 12.464844 18.84375 12.402344 18.855469 12.398438 C 18.863281 12.394531 18.910156 12.476562 18.914062 12.484375 C 18.976562 12.574219 19.042969 12.660156 19.109375 12.75 C 19.261719 12.953125 19.328125 13.179688 19.390625 13.421875 C 19.410156 13.488281 19.429688 13.550781 19.441406 13.613281 C 19.449219 13.550781 19.449219 13.484375 19.449219 13.421875 C 19.449219 13.15625 19.421875 12.890625 19.335938 12.636719 C 19.289062 12.636719 19.242188 12.609375 19.222656 12.5625 C 19.191406 12.5 19.21875 12.421875 19.285156 12.394531 C 19.347656 12.363281 19.421875 12.394531 19.453125 12.457031 C 19.476562 12.511719 19.460938 12.574219 19.417969 12.609375 C 19.5 12.871094 19.53125 13.144531 19.535156 13.421875 C 19.535156 13.515625 19.527344 13.609375 19.519531 13.703125 C 19.59375 13.484375 19.660156 13.261719 19.675781 13.023438 Z M 19.675781 13.023438 " fill-opacity="1" fill-rule="evenodd"/><g clip-path="url(#d6d4ca9341)"><path fill="#ffffff" d="M 19.039062 11.847656 C 19.039062 11.558594 19.011719 11.351562 18.957031 11.222656 C 18.894531 11.082031 18.78125 10.976562 18.625 10.914062 C 18.460938 10.859375 18.222656 10.832031 17.914062 10.832031 L 17.914062 10.59375 L 21.289062 10.59375 C 22.042969 10.59375 22.648438 10.683594 23.097656 10.855469 C 23.554688 11.035156 23.871094 11.273438 24.042969 11.566406 C 24.226562 11.863281 24.316406 12.195312 24.316406 12.558594 C 24.316406 13.515625 23.792969 14.089844 22.742188 14.285156 C 24.066406 14.601562 24.730469 15.289062 24.730469 16.34375 C 24.730469 16.574219 24.703125 16.769531 24.648438 16.9375 C 24.585938 17.117188 24.488281 17.292969 24.363281 17.457031 C 24.136719 17.765625 23.800781 18.003906 23.359375 18.167969 C 22.917969 18.339844 22.378906 18.429688 21.75 18.429688 L 17.914062 18.429688 L 17.914062 18.191406 C 18.316406 18.191406 18.605469 18.140625 18.777344 18.039062 C 18.953125 17.941406 19.039062 17.722656 19.039062 17.375 L 19.039062 17.046875 L 20.246094 17.046875 L 20.246094 17.5625 C 20.246094 17.683594 20.277344 17.78125 20.339844 17.859375 C 20.394531 17.921875 20.472656 17.960938 20.566406 17.976562 L 20.898438 18.015625 L 21.191406 18.015625 C 22.644531 18.015625 23.371094 17.433594 23.371094 16.273438 C 23.371094 15.582031 23.109375 15.121094 22.589844 14.902344 C 22.078125 14.679688 21.417969 14.570312 20.613281 14.570312 L 20.359375 14.570312 L 20.359375 14.109375 L 21.085938 14.109375 C 21.472656 14.109375 21.734375 14.09375 21.867188 14.0625 C 22.222656 14.007812 22.519531 13.859375 22.753906 13.625 C 22.992188 13.394531 23.109375 13.078125 23.109375 12.675781 C 23.109375 12.0625 22.902344 11.628906 22.484375 11.375 C 22.066406 11.132812 21.546875 11.007812 20.933594 11.007812 L 20.496094 11.007812 C 20.414062 11.015625 20.355469 11.039062 20.316406 11.082031 C 20.285156 11.128906 20.261719 11.207031 20.246094 11.316406 L 20.246094 11.847656 Z M 19.039062 11.847656 " fill-opacity="1" fill-rule="nonzero"/></g></svg>